<svg xmlns="http://www.w3.org/2000/svg" width="512" height="512" viewBox="0 0 512 512" role="img" aria-labelledby="double-curve-title">
  <title id="double-curve-title">KFlate double curve compression flow logo</title>
  <defs>
    <linearGradient id="double-curve-color" x1="64" y1="112" x2="448" y2="368" gradientUnits="userSpaceOnUse">
      <stop stop-color="#00e676"/>
      <stop offset="0.5" stop-color="#00cbbd"/>
      <stop offset="1" stop-color="#1e88e5"/>
    </linearGradient>
  </defs>
  <g fill="none" stroke="url(#double-curve-color)" stroke-width="14" stroke-linecap="round">
    <path d="M64 112C160 112 168 224 264 224C360 224 352 208 448 208"/>
    <path d="M64 176C160 176 168 256 264 256C360 256 352 232 448 232"/>
    <path d="M64 240C160 240 168 288 264 288C360 288 352 256 448 256"/>
    <path d="M64 304C160 304 168 320 264 320C360 320 352 280 448 280"/>
    <path d="M64 368C160 368 168 352 264 352C360 352 352 304 448 304"/>
  </g>
</svg>
